# xmcd
#
# Track frame offsets: 
#        150
#        14899
#        29895
#        42656
#        53332
#        67552
#        81430
#        97482
#        110119
#        123626
#
# Disc length: 1886 seconds
#
# Revision: 1
# Processed by: cddbd v1.5.2PL0 Copyright (c) Steve Scherf et al.
# Submitted via: ExactAudioCopy v1.3
#
DISCID=96075c0a
DTITLE=Marty Robbins - Come Back To Me
DYEAR=1982
DGENRE=Country
TTITLE0=Some Memories Just Won't Die
TTITLE1=It's Not All Over
TTITLE2=The American Dream
TTITLE3=Here Your Memory Comes Again
TTITLE4=The First Song That Wasn't The Blues
TTITLE5=Prayin' For Rain
TTITLE6=That's All She Wrote
TTITLE7=Tie Your Dreams To Mine
TTITLE8=If Her Blue Eyes Don't Get You
TTITLE9=Lover, Lover
EXTD=
EXTT0=
EXTT1=
EXTT2=
EXTT3=
EXTT4=
EXTT5=
EXTT6=
EXTT7=
EXTT8=
EXTT9=
PLAYORDER=
